<svg xmlns="http://www.w3.org/2000/svg" xmlns:xlink="http://www.w3.org/1999/xlink" x="0px" y="0px"
	 viewBox="0 0 188 123" style="enable-background:new 0 0 188 123;" xml:space="preserve">
<g>
	<path stroke="#000" fill="none" stroke-miterlimit="10" d="M43.2,121.9c-6,0-11.4-1-16.4-2.9c-5-1.9-9.3-4.7-12.9-8.3c-3.6-3.6-6.4-8.1-8.4-13.2c-2-5.2-3-11-3-17.5
		c0-14.7,5-28.8,15.1-42.2C27.5,24.3,42.2,12.4,61.4,2l18.5,26.4c-5.1,2.7-9.5,5.3-13.4,7.9c-3.9,2.6-7.2,5.2-10.1,7.9
		c-2.9,2.7-5.3,5.5-7.4,8.3c-2.1,2.9-4,5.9-5.6,9.2c5.5,0,10.5,0.8,14.9,2.4c4.4,1.6,8.3,3.7,11.5,6.5c3.2,2.8,5.7,6,7.4,9.6
		c1.7,3.7,2.6,7.6,2.6,11.7c0,4.2-0.9,8.1-2.6,11.7c-1.7,3.7-4.2,6.8-7.4,9.5s-7,4.8-11.5,6.4C53.7,121.1,48.7,121.9,43.2,121.9z
		 M148,121.9c-6,0-11.4-1-16.4-2.9c-5-1.9-9.3-4.7-12.9-8.3c-3.6-3.6-6.4-8.1-8.4-13.2c-2-5.2-3-11-3-17.5c0-14.7,5-28.8,15.1-42.2
		c10-13.4,24.7-25.4,43.9-35.8l18.5,26.4c-5.1,2.7-9.5,5.3-13.4,7.9c-3.9,2.6-7.2,5.2-10.1,7.9c-2.9,2.7-5.3,5.5-7.4,8.3
		c-2.1,2.9-4,5.9-5.6,9.2c5.5,0,10.5,0.8,14.9,2.4c4.4,1.6,8.3,3.7,11.5,6.5c3.2,2.8,5.7,6,7.4,9.6c1.7,3.7,2.6,7.6,2.6,11.7
		c0,4.2-0.9,8.1-2.6,11.7c-1.7,3.7-4.2,6.8-7.4,9.5c-3.2,2.7-7,4.8-11.5,6.4C158.5,121.1,153.5,121.9,148,121.9z"/>
</g>
</svg>
